<svg width="8" height="13" viewBox="0 0 8 13" fill="none" xmlns="http://www.w3.org/2000/svg">
<path d="M6.48802 13.0002C6.30951 13.0003 6.13274 12.965 5.96796 12.8963C5.80317 12.8277 5.65364 12.727 5.52802 12.6002L0.381022 7.40017C0.260353 7.28143 0.164519 7.13986 0.0991041 6.98372C0.0336889 6.82757 0 6.65997 0 6.49067C0 6.32138 0.0336889 6.15378 0.0991041 5.99763C0.164519 5.84148 0.260353 5.69992 0.381022 5.58117L5.71502 0.382174C5.88338 0.219549 6.09079 0.103023 6.31725 0.0438228C6.54372 -0.0153773 6.78162 -0.0152565 7.00802 0.0441736C7.23301 0.101334 7.43898 0.21673 7.60522 0.378755C7.77146 0.540781 7.89211 0.743725 7.95502 0.967174C8.01549 1.18901 8.01519 1.42303 7.95414 1.64471C7.89309 1.86639 7.77354 2.06757 7.60802 2.22717L3.20802 6.50017L7.44802 10.7882C7.57068 10.9071 7.66819 11.0495 7.73479 11.2068C7.80138 11.3642 7.8357 11.5333 7.8357 11.7042C7.8357 11.875 7.80138 12.0442 7.73479 12.2015C7.66819 12.3589 7.57068 12.5012 7.44802 12.6202C7.19041 12.8678 6.84527 13.0033 6.48802 12.9972V13.0002Z" fill="#191919"/>
</svg>
