<svg width="40" height="30" viewBox="0 0 40 30" fill="none" xmlns="http://www.w3.org/2000/svg">
<path d="M36.875 6.25H29.125L25 1.25H15L10.875 6.25H3.12497C2.62769 6.25 2.15077 6.44754 1.79914 6.79917C1.44751 7.15081 1.24997 7.62772 1.24997 8.125L1.24997 26.875C1.24997 27.3723 1.44751 27.8492 1.79914 28.2008C2.15077 28.5525 2.62769 28.75 3.12497 28.75H36.875C37.3723 28.75 37.8492 28.5525 38.2008 28.2008C38.5524 27.8492 38.75 27.3723 38.75 26.875V8.125C38.75 7.62772 38.5524 7.15081 38.2008 6.79917C37.8492 6.44754 37.3723 6.25 36.875 6.25Z" stroke="white" stroke-width="2" stroke-miterlimit="10" stroke-linecap="round" stroke-linejoin="round"/>
<path d="M20 25C24.8325 25 28.75 21.0825 28.75 16.25C28.75 11.4175 24.8325 7.5 20 7.5C15.1675 7.5 11.25 11.4175 11.25 16.25C11.25 21.0825 15.1675 25 20 25Z" stroke="white" stroke-width="2" stroke-miterlimit="10" stroke-linecap="round" stroke-linejoin="round"/>
<path d="M33.75 11.875C34.0951 11.875 34.375 11.5952 34.375 11.25C34.375 10.9048 34.0951 10.625 33.75 10.625C33.4048 10.625 33.125 10.9048 33.125 11.25C33.125 11.5952 33.4048 11.875 33.75 11.875Z" stroke="white" stroke-width="2" stroke-miterlimit="10" stroke-linecap="round" stroke-linejoin="round"/>
<path d="M20 20C22.071 20 23.75 18.3211 23.75 16.25C23.75 14.1789 22.071 12.5 20 12.5C17.9289 12.5 16.25 14.1789 16.25 16.25C16.25 18.3211 17.9289 20 20 20Z" stroke="white" stroke-width="2" stroke-miterlimit="10" stroke-linecap="round" stroke-linejoin="round"/>
</svg>
