<svg width="16" height="16" viewBox="0 0 16 16" fill="none" xmlns="http://www.w3.org/2000/svg">
<path d="M14.366 9.86325C14.3166 9.86339 14.2678 9.87325 14.2223 9.89228C14.1768 9.91131 14.1355 9.93913 14.1007 9.97415C14.066 10.0092 14.0385 10.0507 14.0198 10.0964C14.0012 10.142 13.9917 10.1909 13.992 10.2403V13.5853C13.992 13.8833 13.8739 14.1692 13.6636 14.3804C13.4534 14.5916 13.168 14.7109 12.87 14.7123H2.37296C2.07441 14.7109 1.78858 14.5912 1.57822 14.3793C1.36786 14.1675 1.25016 13.8808 1.25096 13.5823V3.76825C1.25043 3.46978 1.36821 3.18326 1.57851 2.97146C1.78882 2.75966 2.07449 2.63984 2.37296 2.63825H5.69396C5.79046 2.63328 5.88136 2.59144 5.94791 2.52138C6.01445 2.45132 6.05155 2.35838 6.05155 2.26175C6.05155 2.16513 6.01445 2.07219 5.94791 2.00213C5.88136 1.93207 5.79046 1.89023 5.69396 1.88525H2.37296C1.87531 1.88737 1.39883 2.08682 1.04806 2.43984C0.697295 2.79285 0.500896 3.2706 0.50196 3.76825V13.5853C0.500631 14.0831 0.696912 14.5611 1.04771 14.9143C1.3985 15.2676 1.87514 15.4671 2.37296 15.4693H12.873C13.3708 15.4671 13.8474 15.2676 14.1982 14.9143C14.549 14.5611 14.7453 14.0831 14.744 13.5853V10.2403C14.7442 10.1906 14.7346 10.1414 14.7157 10.0954C14.6968 10.0495 14.6689 10.0078 14.6338 9.97272C14.5986 9.93765 14.5568 9.90991 14.5109 9.89112C14.4649 9.87233 14.4156 9.86286 14.366 9.86325Z" fill="#303841"/>
<path d="M14.5968 0.948182C14.2898 0.641206 13.8735 0.46875 13.4393 0.46875C13.0052 0.46875 12.5888 0.641206 12.2818 0.948182L5.79282 7.43718C5.74855 7.48161 5.71651 7.53673 5.69982 7.59718L4.84281 10.6782C4.82561 10.7403 4.82519 10.8058 4.84159 10.8681C4.858 10.9304 4.89065 10.9872 4.9362 11.0328C4.98176 11.0783 5.03859 11.111 5.10089 11.1274C5.16319 11.1438 5.22873 11.1434 5.29082 11.1262L8.37181 10.2732C8.43227 10.2565 8.48739 10.2244 8.53182 10.1802L15.0208 3.69118C15.3273 3.38393 15.4994 2.96766 15.4994 2.53368C15.4994 2.0997 15.3273 1.68344 15.0208 1.37618L14.5968 0.948182ZM6.58582 7.67318L11.8968 2.36218L13.6098 4.07518L8.29881 9.38618L6.58582 7.67318ZM6.24381 8.36018L7.61182 9.72818L5.71881 10.2522L6.24381 8.36018ZM14.5098 3.17518L14.1238 3.56118L12.4108 1.84818L12.7968 1.46218C12.8812 1.3777 12.9815 1.31068 13.0918 1.26496C13.2021 1.21924 13.3204 1.1957 13.4398 1.1957C13.5592 1.1957 13.6775 1.21924 13.7878 1.26496C13.8982 1.31068 13.9984 1.3777 14.0828 1.46218L14.5098 1.88918C14.6798 2.06006 14.7752 2.29135 14.775 2.53239C14.7748 2.77343 14.6791 3.00457 14.5088 3.17518H14.5098Z" fill="#303841"/>
</svg>
