<svg width="30" height="27" viewBox="0 0 30 27" fill="none" xmlns="http://www.w3.org/2000/svg">
<g clip-path="url(#clip0_1_773)">
<path d="M16.754 26.062C16.668 26.062 16.586 26.062 16.504 26.05C14.829 25.902 12.51 23.606 9.61399 19.218C8.13798 17.0219 7.30658 14.4564 7.214 11.812C7.19381 11.2316 7.22258 10.6506 7.3 10.075C6.734 9.497 5.04 7.56901 5.52 5.53101C5.911 3.86401 8.143 3.09901 9.951 2.75101C10.4553 2.65647 10.9767 2.75817 11.4085 3.03532C11.8403 3.31248 12.1499 3.74413 12.274 4.242C12.5045 5.69388 12.3648 7.18045 11.868 8.56401C11.8439 9.55455 12.0053 10.5408 12.344 11.472C14.4539 12.447 16.3147 13.8886 17.786 15.688C18.458 13.4 20.546 8.15801 25.535 9.03601C26.4819 9.1418 27.3783 9.51801 28.1171 10.1197C28.8559 10.7214 29.4057 11.5231 29.701 12.429C30.0334 13.493 30.1019 14.6218 29.9007 15.7181C29.6995 16.8145 29.2345 17.8454 28.546 18.722C26.821 20.545 20.146 26.061 16.756 26.061L16.754 26.062ZM10.32 3.61C10.2506 3.61066 10.1813 3.61736 10.113 3.63001C9.094 3.83001 6.68899 4.42201 6.38499 5.73801C5.94399 7.62001 8.05199 9.572 8.07099 9.591C8.12657 9.64149 8.1686 9.7051 8.19323 9.77603C8.21786 9.84696 8.22432 9.92294 8.212 9.99701C8.11907 10.5922 8.08256 11.1949 8.10299 11.797C8.1913 14.2731 8.97182 16.675 10.356 18.73C12.979 22.704 15.256 25.047 16.583 25.164C19.39 25.402 26.089 20.022 27.892 18.117C28.4621 17.3542 28.8454 16.4682 29.0109 15.5304C29.1764 14.5925 29.1196 13.6289 28.845 12.717C28.5927 11.9688 28.1315 11.3083 27.5159 10.8138C26.9003 10.3192 26.156 10.0112 25.371 9.92601C19.921 8.96601 18.414 16.809 18.398 16.887C18.3818 16.9782 18.3376 17.0621 18.2715 17.127C18.2054 17.192 18.1208 17.2347 18.0293 17.2493C17.9378 17.264 17.844 17.2497 17.761 17.2086C17.678 17.1675 17.6098 17.1016 17.566 17.02C15.942 14.057 11.847 12.238 11.808 12.22C11.7032 12.1724 11.6199 12.0876 11.574 11.982C11.137 10.8747 10.9297 9.68996 10.965 8.5C10.9656 8.45759 10.9724 8.41549 10.985 8.375C11.4533 7.12353 11.5944 5.77326 11.395 4.45201C11.3366 4.21179 11.1989 3.99824 11.0042 3.84584C10.8096 3.69344 10.5692 3.61106 10.322 3.612L10.32 3.61Z" fill="#3A4750"/>
<path d="M4.47902 9.84489C4.38621 9.84501 4.29568 9.81618 4.22003 9.7624C4.14439 9.70863 4.08741 9.63258 4.05702 9.54489L3.31102 7.4089C3.29174 7.35381 3.28349 7.29547 3.28678 7.23719C3.29006 7.17892 3.30482 7.12186 3.33017 7.06929C3.35553 7.01672 3.391 6.96966 3.43456 6.93081C3.47812 6.89197 3.5289 6.86209 3.58402 6.84289L5.73902 6.08589C5.79505 6.06469 5.85475 6.05484 5.91463 6.05691C5.97451 6.05899 6.03337 6.07296 6.0878 6.09799C6.14224 6.12302 6.19116 6.15862 6.23171 6.20272C6.27226 6.24683 6.30364 6.29856 6.32402 6.3549C6.34378 6.41151 6.35193 6.47152 6.34801 6.53135C6.34409 6.59119 6.32819 6.64961 6.30123 6.70317C6.27426 6.75672 6.23679 6.80431 6.19106 6.84309C6.14532 6.88187 6.09226 6.91104 6.03502 6.92889L4.29802 7.5379L4.75102 8.83789L6.54302 8.2059C6.59837 8.1862 6.65705 8.17759 6.71573 8.18057C6.77441 8.18355 6.83193 8.19807 6.885 8.22328C6.93806 8.24849 6.98564 8.28391 7.02503 8.32751C7.06441 8.37111 7.09482 8.42205 7.11452 8.4774C7.13422 8.53275 7.14282 8.59144 7.13983 8.65011C7.13685 8.70879 7.12233 8.76631 7.09712 8.81938C7.07191 8.87245 7.03651 8.92003 6.99291 8.95941C6.94931 8.99879 6.89837 9.0292 6.84302 9.0489L4.62901 9.82989C4.58069 9.84261 4.53099 9.84933 4.48102 9.8499L4.47902 9.84489Z" fill="#3A4750"/>
<path d="M11.811 7.29179C11.7056 7.29197 11.6036 7.2548 11.5229 7.1869C11.4423 7.11899 11.3884 7.02473 11.3706 6.92083C11.3529 6.81692 11.3725 6.71009 11.426 6.61928C11.4796 6.52848 11.5635 6.45958 11.663 6.42478L14.298 5.49978L13.845 4.19977L11.99 4.84778C11.8782 4.88664 11.7556 4.87949 11.6491 4.82792C11.5426 4.77635 11.4609 4.68456 11.422 4.57278C11.3832 4.46099 11.3903 4.33835 11.4419 4.23183C11.4935 4.12531 11.5852 4.04364 11.697 4.00478L13.973 3.20478C14.0848 3.1657 14.2076 3.17248 14.3144 3.22364C14.4212 3.2748 14.5034 3.36617 14.543 3.47777L15.289 5.61678C15.3083 5.67187 15.3166 5.73022 15.3133 5.78849C15.31 5.84676 15.2952 5.90381 15.2699 5.95638C15.2445 6.00895 15.2091 6.05601 15.1655 6.09486C15.122 6.1337 15.0712 6.16358 15.016 6.18278L11.959 7.25278C11.9129 7.27481 11.8622 7.28577 11.811 7.28478V7.29179Z" fill="#3A4750"/>
<path d="M16.114 8.48989C15.8871 8.4902 15.6658 8.41963 15.4809 8.28804C15.2961 8.15644 15.1569 7.97039 15.083 7.75589L13.061 1.93889C12.9669 1.66512 12.9837 1.36537 13.108 1.10389C13.1701 0.974645 13.2574 0.859089 13.3647 0.763967C13.472 0.668845 13.5972 0.596071 13.733 0.549894L15.133 0.0618871C15.2684 0.0146451 15.4117 -0.00544437 15.5549 0.00276693C15.698 0.0109782 15.8382 0.0473338 15.9673 0.109746C16.0964 0.172159 16.2119 0.25941 16.3073 0.366506C16.4026 0.473602 16.4759 0.598443 16.523 0.733892L18.545 6.55089C18.6391 6.82466 18.6222 7.12441 18.498 7.38589C18.4358 7.51513 18.3486 7.63069 18.2413 7.72581C18.1339 7.82093 18.0087 7.89372 17.873 7.93989L16.473 8.42789C16.3579 8.46956 16.2364 8.49055 16.114 8.48989V8.48989ZM15.489 0.896894C15.4665 0.897149 15.4442 0.9012 15.423 0.908887L14.023 1.39689C13.9984 1.40517 13.9758 1.41828 13.9563 1.43545C13.9369 1.45263 13.9212 1.47352 13.91 1.49689C13.8982 1.52029 13.8914 1.54588 13.89 1.57205C13.8886 1.59822 13.8927 1.62439 13.902 1.64889L15.924 7.46589C15.9418 7.51544 15.9786 7.55595 16.0261 7.5786C16.0737 7.60126 16.1282 7.60424 16.178 7.58689L17.578 7.09889C17.603 7.09074 17.6261 7.07758 17.6459 7.06021C17.6657 7.04284 17.6817 7.02163 17.693 6.99787C17.7043 6.97411 17.7107 6.94829 17.7117 6.92199C17.7127 6.8957 17.7084 6.86946 17.699 6.84489L15.677 1.02789C15.6629 0.989423 15.6372 0.956228 15.6036 0.932798C15.57 0.909367 15.53 0.896837 15.489 0.896894V0.896894Z" fill="#3A4750"/>
<path d="M3.113 13.0299C2.8861 13.0302 2.66477 12.9597 2.47993 12.8281C2.29509 12.6965 2.15597 12.5104 2.08201 12.2959L0.060005 6.47893C-0.0345766 6.20547 -0.0169735 5.90568 0.10897 5.64517C0.234914 5.38466 0.458938 5.18465 0.732002 5.08893L2.13201 4.60094C2.40494 4.50676 2.70405 4.5246 2.96384 4.65056C3.22364 4.77652 3.42291 5.00032 3.518 5.27293L5.54 11.0899C5.63458 11.3634 5.61698 11.6632 5.49104 11.9237C5.36509 12.1842 5.14107 12.3842 4.868 12.4799L3.46801 12.9679C3.35243 13.0077 3.23121 13.0286 3.109 13.0299H3.113ZM2.488 5.42993C2.46548 5.43019 2.44317 5.43424 2.422 5.44192L1.02201 5.92993C0.996986 5.93809 0.97387 5.95125 0.954094 5.96861C0.934317 5.98598 0.918294 6.0072 0.906975 6.03096C0.895655 6.05472 0.889277 6.08053 0.888252 6.10683C0.887227 6.13313 0.891573 6.15936 0.901008 6.18393L2.923 12.0009C2.93115 12.026 2.94433 12.0491 2.96169 12.0688C2.97906 12.0886 3.00026 12.1046 3.02402 12.116C3.04779 12.1273 3.07361 12.1336 3.09991 12.1347C3.12621 12.1357 3.15244 12.1314 3.17701 12.1219L4.577 11.6339C4.60203 11.6258 4.62513 11.6126 4.64491 11.5952C4.66468 11.5779 4.68072 11.5567 4.69204 11.5329C4.70336 11.5092 4.70972 11.4833 4.71075 11.457C4.71177 11.4307 4.70744 11.4045 4.69801 11.3799L2.676 5.56293C2.66176 5.52481 2.63623 5.49195 2.60282 5.46872C2.56941 5.44549 2.5297 5.43301 2.48901 5.43294L2.488 5.42993Z" fill="#3A4750"/>
</g>
<defs>
<clipPath id="clip0_1_773">
<rect width="30.008" height="26.062" fill="white"/>
</clipPath>
</defs>
</svg>
