<svg width="24" height="23" viewBox="0 0 24 23" fill="none" xmlns="http://www.w3.org/2000/svg">
<path d="M21.5709 10.2632V10.6792C21.5709 14.1422 21.5589 17.6043 21.5829 21.0663C21.5769 21.3189 21.4787 21.5606 21.3068 21.7458C21.135 21.9311 20.9014 22.0472 20.6499 22.0723C20.5389 22.0793 20.4269 22.0782 20.3149 22.0782C14.7403 22.0782 9.16559 22.0782 3.59092 22.0782C3.3901 22.0842 3.18918 22.0708 2.99092 22.0383C2.40492 21.9223 2.30293 21.7883 2.30293 21.1993C2.30293 17.6859 2.30293 14.1726 2.30293 10.6593V10.2343C1.94993 10.4903 1.65792 10.7022 1.36592 10.9122C0.901925 11.2452 0.541924 11.2123 0.227924 10.8123C0.147362 10.7233 0.0860951 10.6185 0.0479699 10.5047C0.00984467 10.3909 -0.00431045 10.2704 0.00639731 10.1508C0.0171051 10.0312 0.0524431 9.91519 0.110188 9.80994C0.167932 9.70469 0.246828 9.61252 0.341923 9.53925C1.35792 8.68125 2.37526 7.82491 3.39392 6.97025C6.01992 4.76225 8.64592 2.55391 11.2719 0.345248C11.3658 0.236446 11.4819 0.148999 11.6124 0.0887781C11.7428 0.0285567 11.8847 -0.00303598 12.0284 -0.00388852C12.1721 -0.00474106 12.3143 0.0251652 12.4455 0.0838343C12.5767 0.142503 12.6938 0.22858 12.7889 0.33626C16.4363 3.38026 20.0843 6.42326 23.7329 9.46526C23.8264 9.52475 23.901 9.60973 23.9477 9.71019C23.9945 9.81066 24.0116 9.92241 23.9969 10.0323C23.9927 10.1032 23.9927 10.1743 23.9969 10.2453C23.9899 10.5003 24.0689 10.7763 23.7549 10.9333C23.6036 11.0281 23.4293 11.0798 23.2508 11.0828C23.0723 11.0858 22.8963 11.04 22.7419 10.9503C22.4119 10.7503 22.0859 10.5443 21.7579 10.3423C21.6971 10.3125 21.6347 10.2861 21.5709 10.2632V10.2632ZM4.01093 20.3472H19.5589C19.5649 20.2382 19.5749 20.1473 19.5749 20.0603C19.5749 16.2936 19.5749 12.5269 19.5749 8.76026C19.5792 8.67599 19.5621 8.592 19.5252 8.51612C19.4884 8.44023 19.4329 8.37491 19.3639 8.32625C17.5966 6.86425 15.8326 5.39759 14.0719 3.92626C13.3479 3.32626 12.6223 2.72426 11.8949 2.12026C11.8199 2.17326 11.7599 2.21025 11.7049 2.25525L8.21993 5.11225C6.91993 6.18025 5.61993 7.25625 4.30193 8.30625C4.20215 8.37417 4.12194 8.46708 4.06929 8.5757C4.01665 8.68432 3.99342 8.80485 4.00193 8.92525C4.01126 12.5919 4.01326 16.2586 4.00792 19.9252L4.01093 20.3472Z" fill="#3A4750"/>
</svg>
