<svg width="10" height="11" viewBox="0 0 10 11" fill="none" xmlns="http://www.w3.org/2000/svg">
<path d="M4.381 1.17399C4.81117 1.59283 5.14622 2.09929 5.36345 2.65901C5.58068 3.21873 5.675 3.81862 5.64 4.418C5.63779 4.6016 5.70144 4.77991 5.8194 4.92062C5.93736 5.06133 6.10182 5.15512 6.28299 5.18499C6.32295 5.19635 6.3645 5.20108 6.40599 5.19899C6.6074 5.20033 6.80114 5.12187 6.94487 4.98077C7.0886 4.83966 7.17061 4.6474 7.17299 4.446V4.33599C7.17299 4.28099 7.173 4.15799 7.187 4.02099C7.18654 3.99381 7.19418 3.96711 7.20895 3.94428C7.22373 3.92146 7.24496 3.90354 7.26994 3.89282C7.29493 3.8821 7.32254 3.87905 7.34926 3.88407C7.37598 3.88908 7.40061 3.90194 7.42 3.92099C8.14507 4.69892 8.55496 5.71867 8.56999 6.78199C8.55444 7.25502 8.44473 7.72019 8.24727 8.15031C8.04981 8.58043 7.76857 8.96686 7.42 9.28699C6.71452 9.98238 5.76844 10.3795 4.778 10.396C3.7889 10.3732 2.84504 9.97698 2.13599 9.28699C1.78741 8.96686 1.50618 8.58043 1.30872 8.15031C1.11126 7.72019 1.00154 7.25502 0.985992 6.78199C1.09061 5.53418 1.6684 4.3736 2.601 3.53799C3.28649 2.88387 3.77201 2.04843 4.00099 1.12899C4.00364 1.1049 4.01292 1.08202 4.0278 1.06289C4.04268 1.04376 4.06257 1.02913 4.08527 1.02063C4.10796 1.01214 4.13257 1.0101 4.15636 1.01476C4.18014 1.01941 4.20217 1.03057 4.21999 1.04699L4.381 1.17399ZM3.54599 0.0249937C3.49986 0.0237914 3.45421 0.0344742 3.41341 0.0560148C3.3726 0.0775555 3.33802 0.109231 3.31299 0.147995C3.25799 0.247995 3.33999 0.447992 3.43599 0.708992C3.62799 1.29799 3.03599 2.24199 2.20399 3.18699C1.17882 4.12291 0.551744 5.41645 0.451996 6.80099C0.497018 7.92174 0.973901 8.98161 1.78279 9.75866C2.59168 10.5357 3.66984 10.9697 4.79149 10.9697C5.91314 10.9697 6.99131 10.5357 7.8002 9.75866C8.60909 8.98161 9.08597 7.92174 9.131 6.80099C9.12142 6.09916 8.95983 5.40774 8.65738 4.77435C8.35493 4.14095 7.91879 3.58064 7.379 3.13199L7.24199 3.022C7.18116 2.96932 7.10346 2.94022 7.02299 2.93999C6.95981 2.9397 6.89789 2.95766 6.84467 2.99173C6.79145 3.02579 6.74919 3.07449 6.72299 3.13199C6.67293 3.53614 6.64555 3.94278 6.64099 4.34999V4.44999C6.6414 4.47886 6.63602 4.50753 6.62515 4.53428C6.61429 4.56103 6.59816 4.58533 6.57774 4.60575C6.55733 4.62617 6.53302 4.64228 6.50627 4.65314C6.47952 4.66401 6.45087 4.6694 6.422 4.66899H6.381C6.32672 4.6589 6.27774 4.63001 6.24263 4.58741C6.20752 4.5448 6.18853 4.4912 6.189 4.43599C6.22723 3.75917 6.1186 3.0821 5.87056 2.45121C5.62252 1.82032 5.24094 1.25055 4.752 0.780994C4.43437 0.417891 4.0171 0.156055 3.55199 0.0279921L3.54599 0.0249937Z" fill="#00ADB5"/>
</svg>
