<svg width="24" height="25" viewBox="0 0 24 25" fill="none" xmlns="http://www.w3.org/2000/svg">
<path d="M21.8055 10.9826H21V10.9411H12V14.9411H17.6515C16.827 17.2696 14.6115 18.9411 12 18.9411C8.6865 18.9411 6 16.2546 6 12.9411C6 9.62763 8.6865 6.94113 12 6.94113C13.5295 6.94113 14.921 7.51813 15.9805 8.46063L18.809 5.63213C17.023 3.96763 14.634 2.94113 12 2.94113C6.4775 2.94113 2 7.41863 2 12.9411C2 18.4636 6.4775 22.9411 12 22.9411C17.5225 22.9411 22 18.4636 22 12.9411C22 12.2706 21.931 11.6161 21.8055 10.9826Z" fill="#FFC107"/>
<path d="M3.15308 8.28663L6.43858 10.6961C7.32758 8.49513 9.48058 6.94113 12.0001 6.94113C13.5296 6.94113 14.9211 7.51813 15.9806 8.46063L18.8091 5.63213C17.0231 3.96763 14.6341 2.94113 12.0001 2.94113C8.15908 2.94113 4.82808 5.10963 3.15308 8.28663Z" fill="#FF3D00"/>
<path d="M11.9999 22.9411C14.5829 22.9411 16.9299 21.9526 18.7044 20.3451L15.6094 17.7261C14.5717 18.5153 13.3036 18.9422 11.9999 18.9411C9.39891 18.9411 7.19041 17.2826 6.35841 14.9681L3.09741 17.4806C4.75241 20.7191 8.11341 22.9411 11.9999 22.9411Z" fill="#4CAF50"/>
<path d="M21.8055 10.9826H21V10.9411H12V14.9411H17.6515C17.2571 16.0493 16.5467 17.0177 15.608 17.7266L15.6095 17.7256L18.7045 20.3446C18.4855 20.5436 22 17.9411 22 12.9411C22 12.2706 21.931 11.6161 21.8055 10.9826Z" fill="#1976D2"/>
</svg>
