<svg width="24" height="24" viewBox="0 0 24 24" fill="none" xmlns="http://www.w3.org/2000/svg">
<path d="M15.5 13.9999H14.71L14.43 13.7299C15.5266 12.4523 16.0855 10.7995 15.9895 9.11859C15.8934 7.43766 15.1498 5.85931 13.9149 4.71492C12.6799 3.57054 11.0496 2.94913 9.3662 2.98116C7.68283 3.01319 6.07733 3.69618 4.88679 4.88672C3.69625 6.07726 3.01327 7.68275 2.98124 9.36613C2.9492 11.0495 3.57061 12.6798 4.715 13.9148C5.85938 15.1498 7.43773 15.8933 9.11867 15.9894C10.7996 16.0854 12.4524 15.5265 13.73 14.4299L14 14.7099V15.4999L19 20.4899L20.49 18.9999L15.5 13.9999ZM9.5 13.9999C8.60998 13.9999 7.73995 13.736 6.99993 13.2415C6.25991 12.7471 5.68313 12.0443 5.34254 11.222C5.00195 10.3997 4.91283 9.49493 5.08646 8.62202C5.2601 7.7491 5.68868 6.94728 6.31802 6.31794C6.94735 5.6886 7.74918 5.26002 8.62209 5.08639C9.49501 4.91275 10.3998 5.00187 11.2221 5.34246C12.0443 5.68306 12.7471 6.25983 13.2416 6.99986C13.7361 7.73988 14 8.60991 14 9.49992C14.0008 10.0911 13.8849 10.6766 13.6591 11.2229C13.4332 11.7693 13.1018 12.2656 12.6837 12.6837C12.2657 13.1017 11.7693 13.4331 11.223 13.659C10.6767 13.8849 10.0912 14.0007 9.5 13.9999V13.9999Z" fill="#303841"/>
</svg>
