<svg width="12" height="12" viewBox="0 0 12 12" fill="none" xmlns="http://www.w3.org/2000/svg">
<path d="M5.521 11.043C4.42909 11.043 3.36171 10.7192 2.4538 10.1126C1.5459 9.50598 0.83826 8.64378 0.420359 7.635C0.00245842 6.62623 -0.106934 5.51619 0.106014 4.44525C0.318962 3.37431 0.844687 2.39056 1.61671 1.6184C2.38874 0.846231 3.37239 0.320327 4.4433 0.107185C5.5142 -0.105956 6.62426 0.0032351 7.6331 0.420953C8.64195 0.838671 9.50428 1.54616 10.1111 2.45395C10.7178 3.36174 11.0418 4.42907 11.042 5.52098C11.0407 6.98493 10.4586 8.38855 9.42354 9.42381C8.38846 10.4591 6.98495 11.0414 5.521 11.043ZM5.521 0.630979C4.55385 0.630979 3.60842 0.917773 2.80426 1.45509C2.00011 1.99241 1.37334 2.75613 1.00323 3.64966C0.633119 4.54319 0.536281 5.5264 0.724962 6.47497C0.913644 7.42354 1.37937 8.29485 2.06325 8.97873C2.74713 9.66261 3.61844 10.1283 4.56701 10.317C5.51558 10.5057 6.49879 10.4089 7.39232 10.0387C8.28586 9.66864 9.04957 9.04187 9.58689 8.23772C10.1242 7.43356 10.411 6.48813 10.411 5.52098C10.4084 4.22488 9.89232 2.98263 8.97584 2.06615C8.05935 1.14966 6.8171 0.633621 5.521 0.630979Z" fill="#00ADB5"/>
<path d="M7.215 7.52986C7.1736 7.52998 7.13259 7.52191 7.09432 7.50612C7.05604 7.49034 7.02127 7.46713 6.992 7.43786L5.298 5.74486C5.26877 5.71555 5.24559 5.68078 5.22981 5.64251C5.21402 5.60425 5.20593 5.56325 5.206 5.52186V1.93886C5.21054 1.85825 5.24576 1.78244 5.30443 1.72698C5.3631 1.67152 5.44077 1.64063 5.5215 1.64063C5.60223 1.64062 5.6799 1.67152 5.73857 1.72698C5.79724 1.78244 5.83246 1.85825 5.837 1.93886V5.39086L7.437 6.99086C7.48101 7.03505 7.51097 7.09127 7.52309 7.15245C7.53521 7.21363 7.52895 7.27703 7.50511 7.33466C7.48126 7.3923 7.4409 7.44158 7.3891 7.47632C7.33729 7.51105 7.27637 7.52968 7.214 7.52986H7.215Z" fill="#00ADB5"/>
</svg>
