<svg width="15" height="19" viewBox="0 0 15 19" fill="none" xmlns="http://www.w3.org/2000/svg">
<path d="M7.5 19C7.993 19.0024 8.46693 18.8096 8.81824 18.4637C9.16956 18.1178 9.36972 17.647 9.375 17.154H5.625C5.63028 17.647 5.83044 18.1178 6.18176 18.4637C6.53307 18.8096 7.007 19.0024 7.5 19V19ZM13.125 13.462V8.846C13.125 6.012 11.597 3.64 8.906 3.012V2.385C8.906 2.01211 8.75787 1.65449 8.49419 1.39081C8.23052 1.12714 7.87289 0.979004 7.5 0.979004C7.12711 0.979004 6.76948 1.12714 6.50581 1.39081C6.24213 1.65449 6.094 2.01211 6.094 2.385V3.013C3.412 3.64 1.875 6 1.875 8.846V13.461L0 15.308V16.231H15V15.308L13.125 13.462ZM11.25 14.385H3.75V8.846C3.75 6.557 5.166 4.692 7.5 4.692C9.834 4.692 11.25 6.557 11.25 8.846V14.385Z" fill="white"/>
</svg>
