<svg width="25" height="25" viewBox="0 0 25 25" fill="none" xmlns="http://www.w3.org/2000/svg">
<path opacity="0.51" d="M24.1188 23.9384L24.1188 23.9384C24.0641 24.104 23.9584 24.2482 23.817 24.3503C23.6755 24.4523 23.5055 24.5071 23.3311 24.5068M24.1188 23.9384L9.31299 14.1888C10.271 14.65 11.3204 14.8902 12.3836 14.8916C13.4468 14.893 14.4968 14.6555 15.456 14.1968L15.4579 14.2014C15.458 14.2014 15.458 14.2014 15.458 14.2014C15.5995 14.1426 15.7572 14.1355 15.9034 14.1815C17.5488 14.7572 19.0068 15.7694 20.1212 17.11L20.1212 17.1101C21.4331 18.6457 22.2547 20.5393 22.48 22.5464C22.5046 22.7569 22.5184 22.9689 22.5322 23.181C22.5336 23.2015 22.5349 23.2219 22.5362 23.2424C22.5515 23.4749 22.568 23.7073 22.6 23.9375L22.6001 23.9378C22.6348 24.1039 22.7273 24.2523 22.8612 24.3565C22.9951 24.4607 23.1616 24.5139 23.3311 24.5068M24.1188 23.9384L24.119 23.9375C24.2821 22.7502 24.1698 21.5413 23.7908 20.4043C23.0332 17.8194 21.4048 15.576 19.1819 14.0547C18.7942 13.7878 18.3816 13.554 17.9711 13.3214C17.7713 13.2082 17.572 13.0953 17.3763 12.9789C18.0848 12.3245 18.6542 11.5339 19.0505 10.6545C19.4476 9.77301 19.6626 8.82039 19.6825 7.85378C19.7024 6.88716 19.5268 5.92648 19.1663 5.02939C18.8058 4.1323 18.2678 3.31731 17.5845 2.63328C16.2841 1.30392 14.5151 0.536342 12.6559 0.494823C10.7967 0.453304 8.99509 1.14113 7.63663 2.41112C6.34061 3.5823 5.53852 5.20255 5.39303 6.9433C5.26431 8.06505 5.40606 9.20133 5.80648 10.2571C6.20606 11.3106 6.85163 12.2533 7.68931 13.0067M24.1188 23.9384L7.68931 13.0067M23.3311 24.5068C23.3311 24.5068 23.3312 24.5068 23.3312 24.5068L23.331 24.5018L23.331 24.5068C23.331 24.5068 23.3311 24.5068 23.3311 24.5068ZM7.68931 13.0067C7.69063 13.0079 7.69195 13.0091 7.69327 13.0103C7.48922 13.1173 7.30383 13.209 7.12214 13.2989L7.08197 13.3188L7.69403 13.0043C7.69246 13.0051 7.69088 13.0059 7.68931 13.0067ZM7.68931 13.0067C7.48597 13.1133 7.30116 13.2048 7.11996 13.2944C7.10654 13.3011 7.09314 13.3077 7.07975 13.3143L7.07968 13.3143C6.02251 13.8607 5.06394 14.5795 4.24339 15.4413L4.24334 15.4414C2.16862 17.6855 1.0097 20.6254 0.995002 23.6815C0.995001 23.6816 0.995001 23.6817 0.995001 23.6818L1 23.6818L7.68931 13.0067ZM8.8966 14.1765C9.03225 14.1323 9.17933 14.1383 9.31094 14.1934L1.71997 24.4988C1.82123 24.4972 1.9211 24.4749 2.01337 24.4331C2.10564 24.3914 2.18835 24.3312 2.25641 24.2562C2.32447 24.1812 2.37639 24.093 2.409 23.9972C2.4416 23.9013 2.45421 23.7997 2.44598 23.6988L2.45098 23.6989C2.45099 23.6988 2.45099 23.6987 2.45099 23.6986C2.46006 22.7051 2.60504 21.7174 2.88182 20.7632L2.88185 20.7631C3.28165 19.2628 4.03702 17.8809 5.08401 16.7344C6.13099 15.5879 7.43871 14.7106 8.8966 14.1765ZM8.54566 11.6955C7.48443 10.6277 6.88921 9.18317 6.89001 7.67784C6.89001 7.67783 6.89001 7.67781 6.89001 7.6778C6.9031 6.18112 7.50412 4.74959 8.56341 3.69217C9.6227 2.63475 11.0553 2.03626 12.552 2.02582C14.0586 2.03533 15.5003 2.64042 16.5624 3.70907C17.6245 4.77771 18.2208 6.2231 18.221 7.72976C18.2082 9.22632 17.6067 10.6577 16.5468 11.7143C15.4868 12.7708 14.0536 13.3677 12.557 13.3758C11.0502 13.3684 9.60783 12.7642 8.54566 11.6955Z" fill="#3A4750" stroke="#3A4750" stroke-width="0.01"/>
</svg>
