<svg width="120" height="120" viewBox="0 0 120 120" fill="none" xmlns="http://www.w3.org/2000/svg">
<circle cx="60" cy="60" r="60" fill="#FBBC05"/>
<path opacity="0.69" fill-rule="evenodd" clip-rule="evenodd" d="M100.984 103.821C92.8255 111.452 82.6874 116.663 71.7054 118.847C60.0665 121.162 48.0025 119.974 37.039 115.433C30.3487 112.662 24.2517 108.718 19.017 103.822C19.216 96.8268 21.2045 89.9521 24.8526 83.8781C29.8573 75.5452 37.6598 69.2615 46.868 66.148C42.8087 63.3474 39.7511 59.3223 38.1416 54.6607C36.5321 49.999 36.4551 44.9449 37.9218 40.2363C39.3885 35.5278 42.3221 31.4115 46.2942 28.4884C50.2663 25.5654 55.0688 23.9888 60.0005 23.9888C64.9322 23.9888 69.7347 25.5654 73.7068 28.4884C77.6788 31.4115 80.6124 35.5278 82.0791 40.2363C83.5458 44.9449 83.4688 49.999 81.8593 54.6607C80.2499 59.3223 77.1923 63.3474 73.133 66.148C82.3412 69.2615 90.1437 75.5452 95.1484 83.8781C98.7963 89.9518 100.785 96.8262 100.984 103.821Z" fill="#1D1E2C"/>
</svg>
